<svg id="svg" version="1.1" xmlns="http://www.w3.org/2000/svg" xmlns:xlink="http://www.w3.org/1999/xlink" width="400" height="474.7591522157996" viewBox="0, 0, 400,474.7591522157996"><g id="svgg"><path id="path0" d="M202.491 32.216 C 160.710 69.604,95.724 95.134,34.798 98.097 L 29.327 98.363 29.121 99.374 C 3.677 224.151,34.711 330.579,117.822 403.559 C 148.660 430.638,192.855 455.175,207.514 453.356 C 214.139 452.534,246.632 434.721,263.868 422.462 C 346.492 363.694,389.537 257.174,379.755 135.679 C 378.801 123.825,375.827 102.525,375.007 101.668 C 374.870 101.526,371.378 101.842,367.245 102.371 C 346.596 105.010,327.065 100.982,299.807 88.460 C 273.172 76.224,238.146 53.456,212.717 31.848 C 210.067 29.596,207.807 27.753,207.693 27.750 C 207.580 27.748,205.239 29.757,202.491 32.216 M214.315 59.547 C 245.116 84.440,283.526 106.732,310.540 115.391 C 326.484 120.502,339.707 121.894,353.757 119.940 C 360.409 119.016,359.601 118.389,360.838 125.434 C 372.393 191.245,360.895 269.596,331.630 324.470 C 305.153 374.117,269.888 406.469,212.331 433.917 L 207.900 436.031 203.854 435.995 C 190.218 435.876,157.385 418.625,131.500 397.978 C 58.389 339.664,24.722 253.362,36.233 153.766 C 37.551 142.369,41.669 117.443,42.355 116.714 C 42.480 116.581,45.877 116.274,49.904 116.033 C 105.044 112.721,162.972 90.295,200.171 57.860 C 205.824 52.931,205.945 52.850,206.778 53.490 C 207.245 53.849,210.636 56.575,214.315 59.547 M185.934 124.106 C 164.104 126.350,138.802 134.843,116.582 147.385 C 100.739 156.328,77.343 183.422,60.552 212.271 L 57.825 216.955 58.579 223.545 C 61.473 248.865,70.932 282.622,78.294 293.898 C 108.815 340.652,161.435 384.008,212.202 404.232 L 217.275 406.252 221.830 403.823 L 226.384 401.394 224.656 400.648 C 157.243 371.568,98.082 319.504,77.450 271.098 C 69.184 251.707,67.408 235.614,71.686 218.882 C 74.499 207.880,74.277 208.056,74.112 216.956 L 73.965 224.855 75.312 220.897 C 80.486 205.688,100.586 183.150,115.607 175.715 C 116.985 175.033,119.933 173.465,122.158 172.230 C 140.051 162.305,164.325 159.640,190.366 164.742 C 193.015 165.261,194.489 165.609,193.642 165.515 C 189.748 165.084,178.200 164.855,174.374 165.134 C 169.318 165.502,170.022 165.813,177.371 166.460 C 185.128 167.143,201.485 170.254,209.768 172.623 C 211.178 173.026,212.331 173.298,212.331 173.226 C 212.331 173.155,209.947 171.134,207.033 168.734 C 204.118 166.335,200.520 163.235,199.037 161.845 C 196.546 159.512,190.701 154.868,183.316 149.355 C 181.664 148.121,180.372 147.052,180.445 146.979 C 180.860 146.565,195.014 149.677,198.707 150.994 C 223.531 159.849,244.416 174.955,256.087 192.495 C 260.368 198.930,270.609 220.195,272.488 226.552 C 274.186 232.295,275.364 206.129,273.858 196.146 C 271.380 179.727,265.908 167.175,255.584 154.230 C 251.314 148.877,250.762 147.592,252.732 147.592 C 254.100 147.592,273.742 168.353,278.558 174.889 C 279.860 176.656,280.925 178.024,280.925 177.928 C 280.925 176.485,277.617 162.427,276.099 157.418 C 273.720 149.565,251.195 135.134,231.687 128.962 C 218.459 124.777,199.244 122.738,185.934 124.106 M303.519 159.249 C 303.677 159.513,304.868 161.291,306.165 163.198 C 307.462 165.106,309.269 167.924,310.182 169.461 L 311.841 172.254 327.078 172.254 L 342.315 172.254 342.063 167.570 C 341.925 164.993,341.811 161.958,341.811 160.826 L 341.811 158.767 322.521 158.767 C 307.191 158.767,303.289 158.866,303.519 159.249 M167.671 181.173 C 158.373 182.145,151.985 184.131,147.546 187.430 C 135.058 196.712,125.230 211.686,123.747 223.693 C 123.271 227.538,123.393 227.693,124.280 224.379 C 127.773 211.342,138.850 197.847,151.115 191.687 C 155.218 189.626,155.325 189.702,151.900 192.241 C 133.081 206.192,126.037 233.369,135.090 257.093 C 144.292 281.205,169.788 306.570,209.767 331.384 C 219.933 337.694,239.721 347.086,259.861 355.160 C 270.613 359.471,270.648 359.480,271.839 358.478 C 272.637 357.805,272.638 357.806,271.914 358.661 C 271.094 359.630,270.941 359.524,275.411 361.091 L 277.413 361.793 280.038 359.028 C 286.744 351.964,297.537 338.023,296.658 337.559 C 296.377 337.411,294.468 337.177,292.417 337.040 C 268.558 335.443,238.175 326.265,218.873 314.824 C 217.713 314.136,215.291 312.794,213.493 311.842 C 177.287 292.679,150.393 264.315,147.010 241.728 C 146.667 239.442,145.871 235.838,145.240 233.719 C 138.698 211.736,146.380 196.472,170.205 184.114 L 176.686 180.753 173.796 180.794 C 172.206 180.816,169.450 180.987,167.671 181.173 M319.896 188.655 C 320.323 189.621,321.601 192.959,322.734 196.073 L 324.796 201.734 333.079 201.838 L 341.363 201.942 341.574 199.526 C 341.691 198.197,341.890 194.812,342.016 192.004 L 342.247 186.898 330.683 186.898 L 319.118 186.898 319.896 188.655 M214.771 196.528 C 205.358 198.995,199.599 203.072,192.815 212.073 C 181.676 226.850,180.208 243.084,188.482 259.997 C 204.524 292.790,248.295 316.272,299.342 319.473 C 307.679 319.996,307.339 320.078,307.626 317.472 C 307.750 316.340,308.551 309.171,309.405 301.541 C 315.645 245.822,315.503 234.753,308.227 209.742 C 306.463 203.680,306.204 203.407,305.815 207.205 C 303.948 225.425,294.865 245.500,282.548 258.626 C 278.591 262.843,264.670 275.230,264.304 274.859 C 264.146 274.698,263.476 270.405,262.817 265.318 C 256.576 217.139,237.938 190.455,214.771 196.528 M175.420 202.682 C 164.353 211.021,160.706 221.008,163.984 234.002 C 164.810 237.279,165.136 237.070,165.458 233.057 C 166.179 224.077,169.936 213.799,175.616 205.270 C 178.973 200.230,178.876 200.385,178.656 200.385 C 178.552 200.385,177.096 201.419,175.420 202.682 M92.881 210.878 C 87.290 223.344,83.694 243.270,85.089 254.057 C 86.610 265.814,109.561 293.858,133.141 312.773 C 158.727 333.297,213.104 364.374,253.781 381.720 C 255.018 382.248,256.352 381.419,261.405 376.982 L 262.718 375.829 255.733 373.206 C 207.281 355.010,164.331 330.410,138.921 306.302 C 137.013 304.492,133.633 301.835,131.410 300.397 C 99.059 279.478,83.760 243.996,93.275 211.952 C 94.603 207.478,94.514 207.236,92.881 210.878 M328.835 217.630 C 328.954 218.213,329.439 220.901,329.912 223.603 L 330.773 228.516 334.750 228.516 C 337.051 228.516,338.728 228.359,338.728 228.144 C 338.728 227.830,339.431 222.339,340.050 217.823 L 340.221 216.570 334.420 216.570 L 328.619 216.570 328.835 217.630 M224.198 224.393 C 227.806 226.362,227.789 231.164,224.168 232.882 C 222.497 233.676,202.522 233.858,201.034 233.094 C 196.417 230.722,196.910 225.432,201.893 223.863 C 204.035 223.189,222.810 223.635,224.198 224.393 M332.175 248.073 C 332.174 249.928,332.061 252.876,331.925 254.624 C 331.381 261.620,333.514 256.453,335.504 245.954 L 335.742 244.701 333.960 244.701 L 332.177 244.701 332.175 248.073 M234.188 256.520 C 237.808 258.238,237.825 263.040,234.217 265.010 C 232.165 266.131,211.973 266.055,210.019 264.919 C 206.482 262.864,206.818 257.820,210.597 256.246 C 212.209 255.576,232.698 255.813,234.188 256.520 M281.388 281.748 C 286.988 282.947,288.018 288.353,283.075 290.599 C 281.178 291.460,262.111 291.700,259.691 290.892 C 254.132 289.038,254.436 283.677,260.202 281.876 C 262.328 281.212,278.432 281.115,281.388 281.748 " stroke="none" fill="#fafbf3" fill-rule="evenodd"></path><path id="path1" d="M200.571 4.266 C 157.506 47.674,109.530 72.310,55.299 78.865 C 46.172 79.968,24.432 79.874,17.381 78.701 C 14.542 78.228,11.832 77.842,11.358 77.842 C 10.398 77.842,8.926 84.586,6.015 102.312 C -15.939 236.022,22.746 349.884,115.992 426.001 C 152.139 455.508,199.026 479.085,210.790 473.671 C 211.744 473.232,214.778 471.885,217.534 470.679 C 289.123 439.335,343.598 383.151,372.933 310.405 C 396.203 252.697,404.989 181.064,397.273 111.946 C 396.011 100.639,392.138 77.404,391.427 76.872 C 391.373 76.832,387.948 77.819,383.815 79.065 C 364.969 84.747,351.761 85.026,331.893 80.165 C 296.667 71.547,247.773 41.343,211.334 5.689 C 208.136 2.560,205.358 0.000,205.161 0.000 C 204.965 0.000,202.899 1.920,200.571 4.266 M212.636 31.530 C 263.515 74.844,326.490 105.811,358.189 103.103 C 359.672 102.976,364.051 102.501,367.920 102.047 C 371.788 101.593,375.043 101.311,375.153 101.421 C 375.414 101.682,377.410 113.028,378.192 118.690 C 381.563 143.120,382.025 177.538,379.361 205.780 C 368.703 318.789,313.902 403.188,222.816 446.875 C 218.639 448.878,214.017 451.147,212.545 451.916 C 197.119 459.979,142.228 429.005,103.843 390.578 C 36.137 322.798,8.654 230.861,24.457 125.016 C 25.404 118.674,26.322 113.287,28.175 103.201 L 29.073 98.309 31.396 98.120 C 32.673 98.016,36.566 97.741,40.046 97.509 C 64.982 95.847,98.279 88.273,125.241 78.129 C 156.013 66.551,180.380 51.867,203.661 30.869 C 205.780 28.957,207.565 27.386,207.627 27.377 C 207.688 27.368,209.943 29.237,212.636 31.530 M200.516 57.828 C 161.999 91.410,105.611 112.882,46.186 116.597 L 42.467 116.829 41.255 123.185 C 25.049 208.176,37.290 280.046,78.261 340.462 C 104.404 379.012,145.429 413.639,184.778 430.368 C 199.295 436.539,204.846 437.275,211.733 433.942 C 213.440 433.116,218.391 430.722,222.736 428.621 C 297.167 392.639,345.059 326.218,359.896 238.394 C 366.202 201.063,366.494 157.987,360.659 125.855 C 359.323 118.500,360.176 119.300,354.477 120.052 C 337.007 122.355,323.085 120.492,303.775 113.269 C 276.108 102.919,238.859 80.376,210.701 56.942 C 208.215 54.872,206.106 53.179,206.014 53.179 C 205.923 53.179,203.449 55.271,200.516 57.828 M205.029 123.722 C 228.008 125.529,248.063 132.944,265.511 146.084 C 273.143 151.833,275.381 154.134,276.276 157.158 C 278.216 163.717,281.558 178.301,281.202 178.657 C 281.120 178.739,280.374 177.816,279.544 176.607 C 275.514 170.735,253.996 147.592,252.566 147.592 C 251.225 147.592,252.248 149.602,256.095 154.528 C 271.909 174.779,277.820 198.132,273.930 224.995 C 273.343 229.051,273.098 229.304,272.288 226.698 C 269.943 219.157,260.489 199.630,255.592 192.214 C 245.894 177.526,229.012 164.254,208.474 155.172 C 202.214 152.403,193.240 149.138,191.854 149.124 C 191.354 149.119,188.787 148.689,186.152 148.168 C 183.516 147.648,181.300 147.280,181.229 147.352 C 181.157 147.424,184.144 149.768,187.866 152.561 C 191.589 155.355,196.407 159.238,198.574 161.190 C 200.741 163.143,204.897 166.702,207.808 169.099 C 210.720 171.497,213.102 173.516,213.102 173.585 C 213.102 173.655,211.151 173.213,208.767 172.602 C 194.336 168.908,178.002 166.193,169.364 166.053 C 167.048 166.016,166.858 165.964,168.015 165.688 C 170.824 165.017,179.962 164.451,184.778 164.649 L 189.788 164.856 186.898 164.323 C 152.827 158.047,121.301 166.518,106.907 185.815 C 78.506 223.891,88.531 271.789,130.741 299.699 C 133.533 301.545,137.356 304.525,139.421 306.467 C 164.937 330.445,208.601 355.461,254.806 372.573 C 259.198 374.199,262.796 375.658,262.802 375.815 C 262.819 376.256,255.423 382.274,254.864 382.274 C 253.406 382.274,210.859 361.407,196.339 353.571 C 122.370 313.652,86.007 276.176,75.374 228.902 C 74.708 225.940,74.421 225.165,74.306 226.012 C 74.006 228.211,73.501 218.712,73.724 215.047 L 73.947 211.368 72.975 214.836 C 66.025 239.648,70.350 261.771,87.704 290.173 C 112.935 331.467,166.888 375.420,221.116 398.858 C 223.934 400.076,226.248 401.207,226.257 401.372 C 226.282 401.828,218.031 406.152,217.122 406.159 C 215.580 406.172,203.581 401.028,194.247 396.353 C 148.846 373.614,107.509 337.433,79.321 295.761 C 69.450 281.167,59.457 243.314,57.376 212.628 L 56.886 205.411 58.874 201.412 C 80.142 158.626,153.438 119.665,205.029 123.722 M341.951 159.827 C 342.061 160.409,342.205 163.487,342.270 166.667 L 342.389 172.447 327.118 172.548 L 311.846 172.648 310.187 169.850 C 309.274 168.311,307.260 165.188,305.712 162.909 L 302.896 158.767 322.323 158.767 L 341.750 158.767 341.951 159.827 M177.260 180.636 C 177.257 180.795,175.117 181.934,172.503 183.168 C 147.085 195.165,138.528 211.816,145.929 234.875 C 150.694 249.722,166.217 270.907,185.191 288.458 C 187.700 290.779,191.582 294.413,193.817 296.533 C 216.310 317.868,253.056 333.085,290.641 336.627 C 294.305 336.972,297.368 337.319,297.448 337.398 C 298.200 338.141,278.624 361.850,277.259 361.850 C 275.510 361.850,252.392 352.595,238.536 346.348 C 187.708 323.432,146.595 287.927,134.694 256.671 C 129.223 242.303,129.818 225.403,136.294 211.187 C 139.110 205.007,145.514 196.938,151.252 192.340 L 152.794 191.105 150.466 192.242 C 138.776 197.951,127.876 211.819,124.076 225.819 L 123.291 228.709 123.472 225.241 C 124.244 210.385,141.046 187.704,154.309 183.613 C 161.095 181.519,177.278 179.420,177.260 180.636 M342.287 190.173 C 342.231 192.081,342.080 195.592,341.952 197.977 L 341.719 202.312 333.165 202.312 L 324.611 202.312 323.925 200.096 C 323.548 198.878,322.302 195.432,321.157 192.439 C 320.012 189.446,319.075 186.885,319.075 186.749 C 319.075 186.613,324.321 186.547,330.732 186.603 L 342.389 186.705 342.287 190.173 M226.931 195.967 C 243.969 199.983,257.872 226.429,262.968 264.514 C 263.699 269.976,264.388 274.536,264.499 274.647 C 264.785 274.932,278.127 262.857,282.138 258.683 C 294.435 245.886,302.500 228.279,305.525 207.629 L 306.219 202.890 307.608 207.129 C 313.174 224.117,315.199 240.336,313.912 257.611 C 312.802 272.524,309.239 307.577,307.849 317.280 L 307.415 320.303 304.478 320.085 C 302.863 319.965,299.807 319.766,297.688 319.643 C 257.400 317.296,217.913 299.564,197.914 274.839 C 179.310 251.840,177.995 230.069,194.006 210.147 C 203.100 198.832,215.828 193.350,226.931 195.967 M177.691 202.567 C 170.787 212.030,166.666 222.707,165.615 233.852 L 165.165 238.629 164.499 236.670 C 159.707 222.570,164.111 209.853,176.686 201.479 C 180.030 199.253,180.074 199.301,177.691 202.567 M340.270 217.520 C 340.270 218.550,339.224 226.621,338.908 228.035 C 338.722 228.866,338.549 228.902,334.682 228.902 C 330.814 228.902,330.643 228.866,330.460 228.035 C 330.356 227.558,329.913 225.087,329.477 222.543 C 329.041 220.000,328.591 217.616,328.478 217.245 C 328.288 216.623,328.736 216.570,334.271 216.570 L 340.270 216.570 340.270 217.520 M200.818 224.551 C 197.370 226.249,197.217 230.599,200.534 232.607 C 202.013 233.502,219.827 233.924,222.764 233.133 C 227.479 231.864,228.047 226.262,223.647 224.423 C 221.612 223.573,202.586 223.680,200.818 224.551 M335.850 245.568 C 335.743 246.045,335.217 248.419,334.682 250.843 C 333.125 257.898,333.023 258.189,332.109 258.189 C 331.358 258.189,331.317 258.041,331.542 256.166 C 331.676 255.053,331.787 252.018,331.789 249.422 L 331.792 244.701 333.919 244.701 C 335.925 244.701,336.034 244.750,335.850 245.568 M211.538 256.242 C 206.835 257.669,206.300 263.131,210.681 264.986 C 212.476 265.745,231.846 265.740,233.666 264.979 C 237.996 263.170,237.513 257.576,232.918 256.301 C 231.188 255.820,213.091 255.771,211.538 256.242 M331.501 263.776 C 331.400 264.306,331.250 264.740,331.169 264.740 C 331.088 264.740,331.021 264.306,331.021 263.776 C 331.021 263.247,331.171 262.813,331.353 262.813 C 331.536 262.813,331.602 263.247,331.501 263.776 M259.538 282.263 C 255.065 283.878,254.621 288.107,258.696 290.268 C 260.649 291.304,277.000 291.799,281.106 290.947 C 286.510 289.825,287.849 285.303,283.512 282.818 C 281.457 281.641,262.477 281.201,259.538 282.263 " stroke="none" fill="#223654" fill-rule="evenodd"></path><path id="path2" d="M103.636 155.239 C 82.282 169.610,67.433 184.885,59.111 201.041 L 56.968 205.202 57.216 209.634 C 57.658 217.542,57.330 217.505,61.733 210.141 C 74.319 189.092,90.281 168.958,104.563 156.115 C 111.171 150.173,111.168 150.170,103.636 155.239 M114.644 176.408 C 99.323 184.564,80.508 205.889,75.535 220.734 L 74.350 224.270 75.364 228.802 C 77.259 237.274,80.700 247.354,83.806 253.537 L 85.051 256.015 84.865 251.198 C 84.519 242.211,86.045 230.971,88.882 221.610 C 93.958 204.860,106.133 183.962,114.590 177.485 C 118.563 174.442,118.570 174.318,114.644 176.408 M146.845 239.763 C 146.526 258.524,170.891 286.227,206.796 307.929 C 214.200 312.404,214.672 312.423,208.092 307.980 C 186.806 293.607,157.971 261.667,148.703 242.197 C 147.007 238.634,146.867 238.450,146.845 239.763 " stroke="none" fill="#19b4b4" fill-rule="evenodd"></path><path id="path3" d="M48.651 116.268 C 49.234 116.357,50.188 116.357,50.771 116.268 C 51.354 116.180,50.877 116.108,49.711 116.108 C 48.545 116.108,48.068 116.180,48.651 116.268 M42.137 116.972 C 42.011 117.299,42.017 117.675,42.149 117.807 C 42.281 117.939,42.389 117.771,42.389 117.434 C 42.389 117.096,42.693 116.740,43.064 116.643 C 43.696 116.478,43.695 116.464,43.051 116.422 C 42.674 116.398,42.262 116.645,42.137 116.972 M335.554 120.889 C 336.033 120.981,336.727 120.978,337.095 120.881 C 337.463 120.785,337.071 120.709,336.224 120.714 C 335.376 120.718,335.074 120.797,335.554 120.889 M345.761 120.882 C 346.132 120.979,346.739 120.979,347.110 120.882 C 347.481 120.785,347.177 120.706,346.435 120.706 C 345.694 120.706,345.390 120.785,345.761 120.882 M194.885 123.592 C 195.570 123.677,196.783 123.679,197.583 123.595 C 198.382 123.512,197.823 123.442,196.339 123.441 C 194.855 123.439,194.201 123.507,194.885 123.592 M187.380 123.965 C 187.750 124.062,188.357 124.062,188.728 123.965 C 189.099 123.868,188.796 123.789,188.054 123.789 C 187.312 123.789,187.009 123.868,187.380 123.965 M204.532 123.972 C 205.012 124.064,205.705 124.061,206.074 123.964 C 206.442 123.868,206.050 123.792,205.202 123.797 C 204.355 123.801,204.053 123.880,204.532 123.972 M260.694 155.299 C 261.521 156.146,262.286 156.840,262.391 156.840 C 262.497 156.840,261.907 156.146,261.079 155.299 C 260.251 154.451,259.487 153.757,259.381 153.757 C 259.275 153.757,259.866 154.451,260.694 155.299 M364.259 155.877 C 364.263 156.724,364.342 157.026,364.434 156.547 C 364.527 156.067,364.523 155.374,364.427 155.005 C 364.330 154.637,364.255 155.029,364.259 155.877 M380.852 157.803 C 380.854 159.075,380.926 159.549,381.011 158.856 C 381.097 158.164,381.095 157.123,381.008 156.544 C 380.920 155.965,380.849 156.532,380.852 157.803 M100.943 159.441 L 99.615 160.886 101.060 159.558 C 101.855 158.828,102.505 158.178,102.505 158.113 C 102.505 157.819,102.179 158.096,100.943 159.441 M364.671 163.391 C 364.671 164.769,364.740 165.332,364.826 164.644 C 364.911 163.955,364.911 162.828,364.826 162.139 C 364.740 161.450,364.671 162.013,364.671 163.391 M341.931 163.969 C 341.933 165.241,342.005 165.715,342.090 165.022 C 342.176 164.329,342.174 163.289,342.087 162.710 C 341.999 162.131,341.928 162.697,341.931 163.969 M96.318 164.066 L 94.990 165.511 96.435 164.183 C 97.781 162.947,98.058 162.620,97.763 162.620 C 97.699 162.620,97.049 163.271,96.318 164.066 M35.157 164.162 C 35.157 164.904,35.236 165.207,35.333 164.836 C 35.430 164.465,35.430 163.858,35.333 163.487 C 35.236 163.117,35.157 163.420,35.157 164.162 M20.513 165.703 C 20.513 166.445,20.593 166.749,20.690 166.378 C 20.786 166.007,20.786 165.400,20.690 165.029 C 20.593 164.658,20.513 164.961,20.513 165.703 M180.250 164.826 C 180.939 164.911,182.066 164.911,182.755 164.826 C 183.444 164.740,182.881 164.671,181.503 164.671 C 180.125 164.671,179.562 164.740,180.250 164.826 M168.786 165.703 C 168.026 165.947,168.230 166.014,169.750 166.023 C 171.158 166.031,171.469 165.945,170.906 165.703 C 169.991 165.310,170.013 165.310,168.786 165.703 M34.771 169.171 C 34.771 169.913,34.851 170.217,34.948 169.846 C 35.045 169.475,35.045 168.868,34.948 168.497 C 34.851 168.126,34.771 168.430,34.771 169.171 M34.407 175.530 C 34.410 176.590,34.485 176.977,34.573 176.392 C 34.662 175.806,34.659 174.939,34.568 174.465 C 34.477 173.991,34.404 174.470,34.407 175.530 M365.081 178.420 C 365.081 181.069,365.143 182.153,365.218 180.829 C 365.293 179.504,365.293 177.336,365.218 176.012 C 365.143 174.687,365.081 175.771,365.081 178.420 M380.856 176.493 C 380.856 177.871,380.925 178.434,381.011 177.746 C 381.096 177.057,381.096 175.930,381.011 175.241 C 380.925 174.552,380.856 175.116,380.856 176.493 M20.191 182.081 C 20.191 185.048,20.252 186.211,20.325 184.665 C 20.398 183.119,20.398 180.692,20.324 179.270 C 20.250 177.849,20.190 179.114,20.191 182.081 M245.087 179.383 C 245.806 180.125,246.481 180.732,246.587 180.732 C 246.693 180.732,246.191 180.125,245.472 179.383 C 244.753 178.642,244.078 178.035,243.972 178.035 C 243.866 178.035,244.368 178.642,245.087 179.383 M34.078 191.908 C 34.078 197.100,34.133 199.224,34.199 196.628 C 34.266 194.032,34.266 189.783,34.199 187.187 C 34.133 184.591,34.078 186.715,34.078 191.908 M341.935 193.449 C 341.935 194.827,342.004 195.390,342.090 194.701 C 342.175 194.013,342.175 192.885,342.090 192.197 C 342.004 191.508,341.935 192.071,341.935 193.449 M364.667 193.642 C 364.669 194.913,364.741 195.387,364.826 194.694 C 364.912 194.002,364.910 192.961,364.823 192.382 C 364.735 191.803,364.664 192.370,364.667 193.642 M153.351 195.665 L 152.023 197.110 153.468 195.782 C 154.813 194.546,155.090 194.220,154.796 194.220 C 154.732 194.220,154.082 194.870,153.351 195.665 M220.319 195.654 C 221.003 195.739,222.217 195.740,223.016 195.657 C 223.816 195.574,223.256 195.504,221.773 195.502 C 220.289 195.500,219.635 195.569,220.319 195.654 M137.750 201.638 L 135.838 203.661 137.861 201.749 C 138.974 200.697,139.884 199.786,139.884 199.725 C 139.884 199.438,139.527 199.758,137.750 201.638 M341.478 200.689 L 341.426 201.955 332.984 201.845 C 328.341 201.784,324.623 201.864,324.722 202.023 C 324.820 202.182,328.625 202.312,333.175 202.312 C 342.065 202.312,342.081 202.308,341.701 200.317 C 341.573 199.643,341.518 199.735,341.478 200.689 M364.267 201.156 C 364.267 202.110,364.342 202.500,364.434 202.023 C 364.526 201.546,364.526 200.766,364.434 200.289 C 364.342 199.812,364.267 200.202,364.267 201.156 M274.471 202.505 C 274.475 203.353,274.554 203.654,274.646 203.175 C 274.739 202.695,274.735 202.002,274.639 201.633 C 274.542 201.265,274.467 201.657,274.471 202.505 M363.866 206.936 C 363.866 207.678,363.945 207.982,364.042 207.611 C 364.139 207.240,364.139 206.633,364.042 206.262 C 363.945 205.891,363.866 206.195,363.866 206.936 M34.407 207.900 C 34.410 208.960,34.485 209.347,34.573 208.762 C 34.662 208.176,34.659 207.309,34.568 206.835 C 34.477 206.361,34.404 206.840,34.407 207.900 M73.894 211.753 C 73.995 212.283,74.145 212.717,74.226 212.717 C 74.307 212.717,74.374 212.283,74.374 211.753 C 74.374 211.224,74.224 210.790,74.042 210.790 C 73.859 210.790,73.793 211.224,73.894 211.753 M34.771 214.258 C 34.771 215.000,34.851 215.303,34.948 214.933 C 35.045 214.562,35.045 213.955,34.948 213.584 C 34.851 213.213,34.771 213.516,34.771 214.258 M274.471 216.763 C 274.475 217.611,274.554 217.912,274.646 217.433 C 274.739 216.954,274.735 216.260,274.639 215.891 C 274.542 215.523,274.467 215.915,274.471 216.763 M73.730 218.690 C 73.731 220.173,73.801 220.733,73.884 219.934 C 73.968 219.134,73.966 217.920,73.881 217.236 C 73.796 216.552,73.728 217.206,73.730 218.690 M143.064 217.534 C 143.069 218.382,143.148 218.683,143.240 218.204 C 143.332 217.724,143.328 217.031,143.232 216.662 C 143.136 216.294,143.060 216.686,143.064 217.534 M35.157 218.882 C 35.157 219.624,35.236 219.928,35.333 219.557 C 35.430 219.186,35.430 218.579,35.333 218.208 C 35.236 217.837,35.157 218.141,35.157 218.882 M143.064 222.543 C 143.069 223.391,143.148 223.693,143.240 223.213 C 143.332 222.734,143.328 222.040,143.232 221.672 C 143.136 221.303,143.060 221.696,143.064 222.543 M207.418 223.795 C 210.120 223.861,214.542 223.861,217.245 223.795 C 219.947 223.728,217.736 223.674,212.331 223.674 C 206.927 223.674,204.716 223.728,207.418 223.795 M162.718 227.553 C 162.722 228.401,162.801 228.702,162.893 228.223 C 162.985 227.744,162.982 227.050,162.885 226.681 C 162.789 226.313,162.713 226.705,162.718 227.553 M69.454 231.214 C 69.454 231.956,69.533 232.259,69.630 231.888 C 69.727 231.517,69.727 230.910,69.630 230.539 C 69.533 230.169,69.454 230.472,69.454 231.214 M164.811 236.513 C 164.719 236.671,164.783 237.148,164.954 237.572 C 165.224 238.245,165.267 238.208,165.291 237.283 C 165.318 236.238,165.137 235.948,164.811 236.513 M69.469 240.077 C 69.469 241.031,69.544 241.421,69.636 240.944 C 69.728 240.467,69.728 239.687,69.636 239.210 C 69.544 238.733,69.469 239.123,69.469 240.077 M314.213 246.435 C 314.213 248.979,314.276 249.969,314.351 248.636 C 314.427 247.303,314.426 245.222,314.350 244.012 C 314.274 242.801,314.212 243.892,314.213 246.435 M331.907 251.638 C 331.907 252.803,331.980 253.280,332.068 252.697 C 332.156 252.115,332.156 251.161,332.068 250.578 C 331.980 249.995,331.907 250.472,331.907 251.638 M313.777 255.684 C 313.782 256.532,313.861 256.833,313.953 256.354 C 314.045 255.875,314.041 255.181,313.945 254.812 C 313.848 254.444,313.773 254.836,313.777 255.684 M313.384 260.886 C 313.384 261.628,313.464 261.932,313.560 261.561 C 313.657 261.190,313.657 260.583,313.560 260.212 C 313.464 259.841,313.384 260.145,313.384 260.886 M217.029 265.798 C 219.719 265.865,224.228 265.865,227.049 265.799 C 229.869 265.733,227.669 265.679,222.158 265.678 C 216.647 265.678,214.339 265.732,217.029 265.798 M166.089 276.407 C 166.089 276.465,167.433 277.809,169.075 279.393 L 172.062 282.274 169.181 279.287 C 166.506 276.513,166.089 276.125,166.089 276.407 M266.185 281.598 C 268.781 281.665,273.030 281.665,275.626 281.598 C 278.223 281.531,276.098 281.477,270.906 281.477 C 265.713 281.477,263.589 281.531,266.185 281.598 M294.123 319.341 C 294.494 319.438,295.101 319.438,295.472 319.341 C 295.843 319.244,295.539 319.165,294.798 319.165 C 294.056 319.165,293.752 319.244,294.123 319.341 M299.909 319.737 C 300.495 319.826,301.362 319.823,301.836 319.732 C 302.310 319.640,301.830 319.568,300.771 319.571 C 299.711 319.574,299.323 319.648,299.909 319.737 M108.671 332.298 C 108.671 332.364,109.234 332.928,109.923 333.550 L 111.175 334.682 110.044 333.430 C 108.988 332.262,108.671 332.000,108.671 332.298 " stroke="none" fill="#949ca4" fill-rule="evenodd"></path><path id="path4" d="M44.027 116.643 C 44.398 116.740,45.005 116.740,45.376 116.643 C 45.747 116.546,45.443 116.467,44.701 116.467 C 43.960 116.467,43.656 116.546,44.027 116.643 M340.751 121.268 C 341.122 121.364,341.729 121.364,342.100 121.268 C 342.471 121.171,342.168 121.091,341.426 121.091 C 340.684 121.091,340.381 121.171,340.751 121.268 M191.816 123.587 C 192.295 123.679,192.989 123.675,193.357 123.579 C 193.726 123.482,193.333 123.407,192.486 123.411 C 191.638 123.416,191.336 123.494,191.816 123.587 M199.518 123.586 C 199.995 123.678,200.776 123.678,201.252 123.586 C 201.729 123.494,201.339 123.419,200.385 123.419 C 199.432 123.419,199.041 123.494,199.518 123.586 M256.455 151.060 C 257.927 152.543,259.218 153.757,259.324 153.757 C 259.430 153.757,258.312 152.543,256.840 151.060 C 255.368 149.576,254.077 148.362,253.971 148.362 C 253.865 148.362,254.982 149.576,256.455 151.060 M380.837 154.143 C 380.837 155.096,380.912 155.487,381.004 155.010 C 381.096 154.533,381.096 153.752,381.004 153.276 C 380.912 152.799,380.837 153.189,380.837 154.143 M267.437 162.428 C 269.230 164.229,270.783 165.703,270.889 165.703 C 270.995 165.703,269.615 164.229,267.823 162.428 C 266.031 160.626,264.478 159.152,264.372 159.152 C 264.266 159.152,265.645 160.626,267.437 162.428 M169.653 162.501 C 170.024 162.598,170.631 162.598,171.002 162.501 C 171.373 162.404,171.069 162.324,170.328 162.324 C 169.586 162.324,169.282 162.404,169.653 162.501 M177.172 164.820 C 177.651 164.912,178.345 164.908,178.714 164.812 C 179.082 164.716,178.690 164.640,177.842 164.644 C 176.994 164.649,176.693 164.728,177.172 164.820 M184.297 164.813 C 184.668 164.910,185.275 164.910,185.645 164.813 C 186.016 164.716,185.713 164.637,184.971 164.637 C 184.229 164.637,183.926 164.716,184.297 164.813 M364.652 167.245 C 364.652 168.198,364.727 168.589,364.819 168.112 C 364.911 167.635,364.911 166.855,364.819 166.378 C 364.727 165.901,364.652 166.291,364.652 167.245 M342.258 170.625 L 342.197 172.272 326.819 172.167 C 318.361 172.109,311.522 172.192,311.620 172.351 C 311.718 172.510,318.644 172.640,327.010 172.640 C 343.702 172.640,342.786 172.780,342.478 170.268 C 342.336 169.111,342.314 169.148,342.258 170.625 M20.162 174.566 C 20.162 175.944,20.232 176.508,20.317 175.819 C 20.403 175.130,20.403 174.003,20.317 173.314 C 20.232 172.625,20.162 173.189,20.162 174.566 M34.386 178.420 C 34.386 179.162,34.465 179.465,34.562 179.094 C 34.659 178.724,34.659 178.117,34.562 177.746 C 34.465 177.375,34.386 177.678,34.386 178.420 M380.837 180.347 C 380.837 181.301,380.912 181.691,381.004 181.214 C 381.096 180.737,381.096 179.957,381.004 179.480 C 380.912 179.003,380.837 179.393,380.837 180.347 M173.025 180.565 C 174.338 180.859,177.264 180.909,177.264 180.639 C 177.264 180.478,176.180 180.367,174.855 180.392 C 173.531 180.416,172.707 180.494,173.025 180.565 M330.609 186.799 C 340.475 186.893,342.168 186.993,342.323 187.489 C 342.446 187.885,342.484 187.853,342.441 187.387 C 342.383 186.751,341.589 186.705,330.727 186.697 L 319.075 186.688 330.609 186.799 M20.162 189.595 C 20.162 190.973,20.232 191.537,20.317 190.848 C 20.403 190.159,20.403 189.032,20.317 188.343 C 20.232 187.654,20.162 188.218,20.162 189.595 M364.652 189.981 C 364.652 190.934,364.727 191.325,364.819 190.848 C 364.911 190.371,364.911 189.591,364.819 189.114 C 364.727 188.637,364.652 189.027,364.652 189.981 M140.059 193.545 L 138.536 195.183 140.173 193.660 C 141.697 192.243,141.988 191.908,141.697 191.908 C 141.634 191.908,140.897 192.645,140.059 193.545 M170.700 206.455 L 168.593 208.671 170.809 206.564 C 172.868 204.607,173.202 204.239,172.916 204.239 C 172.855 204.239,171.858 205.236,170.700 206.455 M274.900 209.441 C 274.901 211.561,274.966 212.379,275.044 211.259 C 275.122 210.139,275.121 208.405,275.042 207.405 C 274.963 206.406,274.899 207.322,274.900 209.441 M196.315 207.418 L 195.183 208.671 196.435 207.539 C 197.124 206.916,197.688 206.353,197.688 206.286 C 197.688 205.989,197.370 206.251,196.315 207.418 M143.057 220.039 C 143.057 220.780,143.136 221.084,143.233 220.713 C 143.330 220.342,143.330 219.735,143.233 219.364 C 143.136 218.993,143.057 219.297,143.057 220.039 M90.648 227.746 C 90.648 228.487,90.727 228.791,90.824 228.420 C 90.921 228.049,90.921 227.442,90.824 227.071 C 90.727 226.700,90.648 227.004,90.648 227.746 M332.673 228.802 C 333.899 228.878,335.807 228.878,336.912 228.800 C 338.017 228.722,337.013 228.660,334.682 228.661 C 332.351 228.661,331.447 228.725,332.673 228.802 M69.499 235.453 C 69.499 237.254,69.565 237.991,69.646 237.091 C 69.727 236.190,69.727 234.716,69.646 233.815 C 69.565 232.914,69.499 233.651,69.499 235.453 M90.648 234.297 C 90.648 235.039,90.727 235.342,90.824 234.971 C 90.921 234.600,90.921 233.993,90.824 233.622 C 90.727 233.251,90.648 233.555,90.648 234.297 M182.756 238.728 C 182.760 239.576,182.839 239.878,182.932 239.398 C 183.024 238.919,183.020 238.225,182.924 237.857 C 182.827 237.488,182.752 237.881,182.756 238.728 M331.918 247.206 C 331.920 248.690,331.990 249.250,332.073 248.450 C 332.157 247.650,332.155 246.437,332.070 245.752 C 331.985 245.068,331.917 245.723,331.918 247.206 M280.154 260.694 C 278.575 262.283,277.370 263.584,277.476 263.584 C 277.582 263.584,278.961 262.283,280.539 260.694 C 282.118 259.104,283.324 257.803,283.218 257.803 C 283.112 257.803,281.733 259.104,280.154 260.694 M114.258 286.705 C 115.517 287.977,116.633 289.017,116.739 289.017 C 116.845 289.017,115.902 287.977,114.644 286.705 C 113.385 285.434,112.269 284.393,112.163 284.393 C 112.057 284.393,113.000 285.434,114.258 286.705 M160.501 294.027 C 162.400 295.934,164.040 297.495,164.146 297.495 C 164.252 297.495,162.785 295.934,160.886 294.027 C 158.988 292.119,157.347 290.559,157.242 290.559 C 157.136 290.559,158.602 292.119,160.501 294.027 M111.753 293.748 C 111.753 293.806,113.097 295.150,114.740 296.734 L 117.726 299.615 114.846 296.628 C 112.170 293.854,111.753 293.466,111.753 293.748 M137.765 305.202 C 138.593 306.050,139.357 306.744,139.463 306.744 C 139.569 306.744,138.978 306.050,138.150 305.202 C 137.322 304.355,136.558 303.661,136.452 303.661 C 136.346 303.661,136.937 304.355,137.765 305.202 M119.461 330.058 C 121.891 332.495,123.966 334.489,124.072 334.489 C 124.178 334.489,122.276 332.495,119.846 330.058 C 117.415 327.620,115.340 325.626,115.234 325.626 C 115.128 325.626,117.030 327.620,119.461 330.058 M106.358 329.986 C 106.358 330.052,106.922 330.616,107.611 331.238 L 108.863 332.370 107.731 331.118 C 106.676 329.950,106.358 329.688,106.358 329.986 M114.066 338.078 C 114.066 338.145,114.629 338.708,115.318 339.331 L 116.570 340.462 115.439 339.210 C 114.383 338.043,114.066 337.780,114.066 338.078 M123.314 347.013 C 124.033 347.755,124.708 348.362,124.814 348.362 C 124.920 348.362,124.418 347.755,123.699 347.013 C 122.980 346.272,122.305 345.665,122.199 345.665 C 122.094 345.665,122.595 346.272,123.314 347.013 M105.588 374.374 C 106.953 375.751,108.157 376.879,108.263 376.879 C 108.369 376.879,107.338 375.751,105.973 374.374 C 104.608 372.996,103.404 371.869,103.298 371.869 C 103.192 371.869,104.222 372.996,105.588 374.374 M293.049 377.746 L 291.137 379.769 293.160 377.856 C 294.273 376.805,295.183 375.894,295.183 375.833 C 295.183 375.546,294.826 375.866,293.049 377.746 M112.524 381.310 C 113.889 382.688,115.093 383.815,115.199 383.815 C 115.305 383.815,114.275 382.688,112.909 381.310 C 111.544 379.933,110.340 378.805,110.234 378.805 C 110.128 378.805,111.159 379.933,112.524 381.310 M285.342 385.453 L 283.430 387.476 285.453 385.564 C 287.333 383.787,287.653 383.430,287.365 383.430 C 287.304 383.430,286.394 384.340,285.342 385.453 M103.854 390.751 C 107.240 394.143,110.097 396.917,110.203 396.917 C 110.309 396.917,107.625 394.143,104.239 390.751 C 100.853 387.360,97.996 384.586,97.890 384.586 C 97.784 384.586,100.467 387.360,103.854 390.751 M304.215 386.994 L 303.083 388.247 304.335 387.115 C 305.024 386.492,305.588 385.929,305.588 385.862 C 305.588 385.565,305.270 385.827,304.215 386.994 M296.905 394.701 L 294.605 397.110 297.013 394.810 C 298.338 393.545,299.422 392.461,299.422 392.401 C 299.422 392.117,299.042 392.464,296.905 394.701 " stroke="none" fill="#667385" fill-rule="evenodd"></path></g></svg>